# Blender v2.75 (sub 0) OBJ File: 'shape_as_intended.blend'
# www.blender.org
o calibration_precise_alignment_Sphere
v 0.500000 0.000000 0.000000
v 0.482963 0.129410 0.000000
v 0.466506 0.129410 0.125000
v 0.482963 0.000000 0.129409
v 0.482963 -0.129409 0.000000
v 0.466506 -0.129409 0.125000
v 0.482963 0.000000 -0.129409
v 0.466506 0.129410 -0.125000
v 0.433013 0.250000 0.000000
v 0.418258 0.250000 0.112072
v 0.418258 0.129410 0.241481
v 0.433013 0.000000 0.250000
v 0.433013 -0.250000 0.000000
v 0.418258 -0.250000 0.112072
v 0.466506 -0.129409 -0.125000
v 0.418258 -0.129409 0.241481
v 0.433013 0.000000 -0.250000
v 0.418258 0.129410 -0.241481
v 0.418258 0.250000 -0.112072
v 0.353553 0.353553 0.000000
v 0.341506 0.353553 0.091506
v 0.375000 0.250000 0.216506
v 0.341506 0.129410 0.341506
v 0.353553 0.000000 0.353553
v 0.392900 -0.302276 0.000000
v 0.379512 -0.302276 0.101690
v 0.418258 -0.250000 -0.112072
v 0.375000 -0.250000 0.216506
v 0.418258 -0.129409 -0.241481
v 0.341506 -0.129409 0.341506
v 0.353553 0.000000 -0.353553
v 0.341506 0.129410 -0.341506
v 0.375000 0.250000 -0.216506
v 0.341506 0.353553 -0.091506
v 0.250000 0.433013 0.000000
v 0.241481 0.433013 0.064705
v 0.306186 0.353553 0.176777
v 0.306186 0.250000 0.306186
v 0.241482 0.129410 0.418258
v 0.250000 0.000000 0.433012
v 0.379512 -0.302276 -0.101690
v 0.340261 -0.302276 0.196450
v 0.375000 -0.250000 -0.216506
v 0.306186 -0.250000 0.306186
v 0.341506 -0.129409 -0.341506
v 0.241482 -0.129409 0.418258
v 0.250000 0.000000 -0.433012
v 0.241481 0.129410 -0.418258
v 0.306186 0.250000 -0.306186
v 0.306186 0.353553 -0.176777
v 0.241481 0.433013 -0.064705
v 0.129410 0.482963 0.000000
v 0.125000 0.482963 0.033494
v 0.216506 0.433013 0.125000
v 0.250000 0.353553 0.250000
v 0.216506 0.250000 0.375000
v 0.125000 0.129410 0.466506
v 0.129410 0.000000 0.482963
v 0.340261 -0.302276 -0.196450
v 0.277822 -0.302276 0.277822
v 0.306186 -0.250000 -0.306186
v 0.216506 -0.250000 0.375000
v 0.241482 -0.129409 -0.418258
v 0.125000 -0.129409 0.466506
v 0.129410 0.000000 -0.482963
v 0.125000 0.129410 -0.466506
v 0.216506 0.250000 -0.375000
v 0.250000 0.353553 -0.250000
v 0.216506 0.433013 -0.125000
v 0.125000 0.482963 -0.033494
v 0.000000 0.500000 -0.000000
v 0.112072 0.482963 0.064705
v 0.176777 0.433013 0.176777
v 0.176777 0.353553 0.306186
v 0.112072 0.250000 0.418258
v 0.000000 0.129410 0.482963
v 0.000000 0.000000 0.500000
v 0.277822 -0.302276 -0.277822
v 0.196450 -0.302276 0.340261
v 0.216506 -0.250000 -0.375000
v 0.112072 -0.250000 0.418258
v 0.125000 -0.129409 -0.466506
v 0.000000 -0.129409 0.482963
v 0.000000 0.000000 -0.500000
v 0.000000 0.129410 -0.482963
v 0.112072 0.250000 -0.418258
v 0.176777 0.353553 -0.306186
v 0.176777 0.433013 -0.176777
v 0.112072 0.482963 -0.064705
v 0.091506 0.482963 0.091506
v 0.125000 0.433013 0.216506
v 0.091506 0.353553 0.341506
v 0.000000 0.250000 0.433012
v -0.125000 0.129410 0.466506
v -0.129409 0.000000 0.482963
v 0.196450 -0.302276 -0.340261
v 0.101690 -0.302276 0.379512
v 0.112072 -0.250000 -0.418258
v 0.000000 -0.250000 0.433012
v 0.000000 -0.129409 -0.482963
v -0.125000 -0.129409 0.466506
v -0.129409 0.000000 -0.482963
v -0.125000 0.129410 -0.466506
v 0.000000 0.250000 -0.433012
v 0.091507 0.353553 -0.341506
v 0.125000 0.433013 -0.216506
v 0.091506 0.482963 -0.091506
v 0.064705 0.482963 0.112072
v 0.064705 0.433013 0.241481
v 0.000000 0.353553 0.353553
v -0.112072 0.250000 0.418258
v -0.241481 0.129410 0.418258
v -0.250000 0.000000 0.433012
v 0.101690 -0.302276 -0.379512
v 0.000000 -0.302276 0.392900
v 0.000000 -0.250000 -0.433012
v -0.112072 -0.250000 0.418258
v -0.125000 -0.129409 -0.466506
v -0.241481 -0.129409 0.418258
v -0.250000 0.000000 -0.433012
v -0.241481 0.129410 -0.418258
v -0.112072 0.250000 -0.418258
v 0.000000 0.353553 -0.353553
v 0.064705 0.433013 -0.241481
v 0.064705 0.482963 -0.112072
v 0.033494 0.482963 0.125000
v 0.000000 0.433013 0.250000
v -0.091506 0.353553 0.341506
v -0.216506 0.250000 0.375000
v -0.341506 0.129410 0.341506
v -0.353553 0.000000 0.353553
v 0.000000 -0.302276 -0.392900
v -0.101690 -0.302276 0.379512
v -0.112072 -0.250000 -0.418258
v -0.216506 -0.250000 0.375000
v -0.241481 -0.129409 -0.418258
v -0.341506 -0.129409 0.341506
v -0.353553 0.000000 -0.353553
v -0.341506 0.129410 -0.341506
v -0.216506 0.250000 -0.375000
v -0.091506 0.353553 -0.341506
v 0.000000 0.433013 -0.250000
v 0.033494 0.482963 -0.125000
v 0.000000 0.482963 0.129409
v -0.064705 0.433013 0.241481
v -0.176776 0.353553 0.306186
v -0.306186 0.250000 0.306186
v -0.418258 0.129410 0.241481
v -0.433012 0.000000 0.250000
v -0.101690 -0.302276 -0.379512
v -0.196450 -0.302276 0.340261
v -0.216506 -0.250000 -0.375000
v -0.306186 -0.250000 0.306186
v -0.341506 -0.129409 -0.341506
v -0.418258 -0.129409 0.241481
v -0.433012 0.000000 -0.250000
v -0.418258 0.129410 -0.241481
v -0.306186 0.250000 -0.306186
v -0.176776 0.353553 -0.306186
v -0.064704 0.433013 -0.241481
v 0.000000 0.482963 -0.129409
v -0.033493 0.482963 0.125000
v -0.125000 0.433013 0.216506
v -0.250000 0.353553 0.250000
v -0.375000 0.250000 0.216506
v -0.466506 0.129410 0.125000
v -0.482962 0.000000 0.129409
v -0.196450 -0.302276 -0.340261
v -0.277822 -0.302276 0.277822
v -0.306186 -0.250000 -0.306186
v -0.375000 -0.250000 0.216506
v -0.418258 -0.129409 -0.241481
v -0.466506 -0.129409 0.125000
v -0.482962 0.000000 -0.129409
v -0.466506 0.129410 -0.125000
v -0.375000 0.250000 -0.216506
v -0.250000 0.353553 -0.250000
v -0.125000 0.433013 -0.216506
v -0.033493 0.482963 -0.125000
v -0.064704 0.482963 0.112072
v -0.176776 0.433013 0.176777
v -0.306186 0.353553 0.176776
v -0.418258 0.250000 0.112072
v -0.482962 0.129410 -0.000000
v -0.499999 0.000000 -0.000000
v -0.277822 -0.302276 -0.277822
v -0.340261 -0.302276 0.196450
v -0.375000 -0.250000 -0.216506
v -0.418258 -0.250000 0.112072
v -0.466506 -0.129409 -0.125000
v -0.482962 -0.129409 -0.000000
v -0.418258 0.250000 -0.112072
v -0.306186 0.353553 -0.176777
v -0.176776 0.433013 -0.176777
v -0.064704 0.482963 -0.112072
v -0.091506 0.482963 0.091506
v -0.216506 0.433013 0.125000
v -0.341506 0.353553 0.091506
v -0.433012 0.250000 -0.000000
v -0.340261 -0.302276 -0.196450
v -0.379512 -0.302276 0.101690
v -0.418258 -0.250000 -0.112072
v -0.433012 -0.250000 -0.000000
v -0.341506 0.353553 -0.091506
v -0.216506 0.433013 -0.125000
v -0.091506 0.482963 -0.091506
v -0.112072 0.482963 0.064705
v -0.241481 0.433013 0.064705
v -0.353553 0.353553 -0.000000
v -0.379512 -0.302276 -0.101690
v -0.392899 -0.302276 -0.000000
v -0.241481 0.433013 -0.064705
v -0.112072 0.482963 -0.064705
v -0.125000 0.482963 0.033494
v -0.250000 0.433013 -0.000000
v -0.125000 0.482963 -0.033494
v -0.129409 0.482963 0.000000
vn 0.983100 0.129400 0.129400
vn 0.983100 -0.129400 0.129400
vn 0.983100 0.129400 -0.129400
vn 0.917100 0.379900 0.120700
vn 0.916100 0.129400 0.379500
vn 0.917100 -0.379900 0.120700
vn 0.983100 -0.129400 -0.129400
vn 0.916100 -0.129400 0.379500
vn 0.916100 0.129400 -0.379500
vn 0.917100 0.379900 -0.120700
vn 0.789100 0.605500 0.103900
vn 0.854600 0.379900 0.354000
vn 0.786700 0.129400 0.603600
vn 0.789100 -0.605500 0.103900
vn 0.917100 -0.379900 -0.120700
vn 0.854600 -0.379900 0.354000
vn 0.916100 -0.129400 -0.379500
vn 0.786700 -0.129400 0.603600
vn 0.786700 0.129400 -0.603600
vn 0.854600 0.379900 -0.354000
vn 0.789100 0.605500 -0.103900
vn 0.606800 0.790800 0.079900
vn 0.735300 0.605500 0.304600
vn 0.733900 0.379900 0.563100
vn 0.603600 0.129400 0.786700
vn 0.789100 -0.605500 -0.103900
vn 0.735300 -0.605500 0.304600
vn 0.854600 -0.379900 -0.354000
vn 0.733900 -0.379900 0.563100
vn 0.786700 -0.129400 -0.603600
vn 0.603600 -0.129400 0.786700
vn 0.603600 0.129400 -0.786700
vn 0.733900 0.379900 -0.563100
vn 0.735300 0.605500 -0.304600
vn 0.606800 0.790800 -0.079900
vn 0.382200 0.922700 0.050300
vn 0.565500 0.790800 0.234200
vn 0.631400 0.605500 0.484500
vn 0.563100 0.379900 0.733900
vn 0.379500 0.129400 0.916100
vn 0.735300 -0.605500 -0.304600
vn 0.631400 -0.605500 0.484500
vn 0.733900 -0.379900 -0.563100
vn 0.563100 -0.379900 0.733900
vn 0.603600 -0.129400 -0.786700
vn 0.379500 -0.129400 0.916100
vn 0.379500 0.129400 -0.916100
vn 0.563100 0.379900 -0.733900
vn 0.631400 0.605500 -0.484500
vn 0.565500 0.790800 -0.234200
vn 0.382200 0.922700 -0.050300
vn 0.130500 0.991300 0.017200
vn 0.356200 0.922700 0.147500
vn 0.485600 0.790800 0.372600
vn 0.484500 0.605500 0.631400
vn 0.354000 0.379900 0.854600
vn 0.129400 0.129400 0.983100
vn 0.631400 -0.605500 -0.484500
vn 0.484500 -0.605500 0.631400
vn 0.563100 -0.379900 -0.733900
vn 0.354000 -0.379900 0.854600
vn 0.379500 -0.129400 -0.916100
vn 0.129400 -0.129400 0.983100
vn 0.129400 0.129400 -0.983100
vn 0.354000 0.379900 -0.854600
vn 0.484500 0.605500 -0.631400
vn 0.485600 0.790800 -0.372600
vn 0.356200 0.922700 -0.147500
vn 0.130500 0.991300 -0.017200
vn 0.121600 0.991300 0.050400
vn 0.305800 0.922700 0.234700
vn 0.372600 0.790800 0.485600
vn 0.304600 0.605500 0.735300
vn 0.120700 0.379900 0.917100
vn -0.129400 0.129400 0.983100
vn 0.484500 -0.605500 -0.631400
vn 0.304600 -0.605500 0.735300
vn 0.354000 -0.379900 -0.854600
vn 0.120700 -0.379900 0.917100
vn 0.129400 -0.129400 -0.983100
vn -0.129400 -0.129400 0.983100
vn -0.129400 0.129400 -0.983100
vn 0.120700 0.379900 -0.917100
vn 0.304600 0.605500 -0.735300
vn 0.372600 0.790800 -0.485600
vn 0.305800 0.922700 -0.234700
vn 0.121600 0.991300 -0.050400
vn 0.104400 0.991300 0.080100
vn 0.234700 0.922700 0.305800
vn 0.234200 0.790800 0.565500
vn 0.103900 0.605500 0.789100
vn -0.120700 0.379900 0.917100
vn -0.379500 0.129400 0.916100
vn 0.304600 -0.605500 -0.735300
vn 0.103900 -0.605500 0.789100
vn 0.120700 -0.379900 -0.917100
vn -0.120700 -0.379900 0.917100
vn -0.129400 -0.129400 -0.983100
vn -0.379500 -0.129400 0.916100
vn -0.379500 0.129400 -0.916100
vn -0.120700 0.379900 -0.917100
vn 0.103900 0.605500 -0.789100
vn 0.234200 0.790800 -0.565500
vn 0.234700 0.922700 -0.305800
vn 0.104400 0.991300 -0.080100
vn 0.080100 0.991300 0.104400
vn 0.147500 0.922700 0.356200
vn 0.079900 0.790800 0.606800
vn -0.103900 0.605500 0.789100
vn -0.354000 0.379900 0.854600
vn -0.603600 0.129400 0.786700
vn 0.103900 -0.605500 -0.789100
vn -0.103900 -0.605500 0.789100
vn -0.120700 -0.379900 -0.917100
vn -0.354000 -0.379900 0.854600
vn -0.379500 -0.129400 -0.916100
vn -0.603600 -0.129400 0.786700
vn -0.603600 0.129400 -0.786700
vn -0.354000 0.379900 -0.854600
vn -0.103900 0.605500 -0.789100
vn 0.079900 0.790800 -0.606800
vn 0.147500 0.922700 -0.356200
vn 0.080100 0.991300 -0.104400
vn 0.050400 0.991300 0.121600
vn 0.050300 0.922700 0.382200
vn -0.079900 0.790800 0.606800
vn -0.304600 0.605500 0.735300
vn -0.563100 0.379900 0.733900
vn -0.786700 0.129400 0.603600
vn -0.103900 -0.605500 -0.789100
vn -0.304600 -0.605500 0.735300
vn -0.354000 -0.379900 -0.854600
vn -0.563100 -0.379900 0.733900
vn -0.603600 -0.129400 -0.786700
vn -0.786700 -0.129400 0.603600
vn -0.786700 0.129400 -0.603600
vn -0.563100 0.379900 -0.733900
vn -0.304600 0.605500 -0.735300
vn -0.079900 0.790800 -0.606800
vn 0.050300 0.922700 -0.382200
vn 0.050400 0.991300 -0.121600
vn 0.017200 0.991300 0.130500
vn -0.050300 0.922700 0.382200
vn -0.234200 0.790800 0.565500
vn -0.484500 0.605500 0.631400
vn -0.733900 0.379900 0.563100
vn -0.916100 0.129400 0.379500
vn -0.304600 -0.605500 -0.735300
vn -0.484500 -0.605500 0.631400
vn -0.563100 -0.379900 -0.733900
vn -0.733900 -0.379900 0.563100
vn -0.786700 -0.129400 -0.603600
vn -0.916100 -0.129400 0.379500
vn -0.916100 0.129400 -0.379500
vn -0.733900 0.379900 -0.563100
vn -0.484500 0.605500 -0.631400
vn -0.234200 0.790800 -0.565500
vn -0.050300 0.922700 -0.382200
vn 0.017200 0.991300 -0.130500
vn -0.017200 0.991300 0.130500
vn -0.147500 0.922700 0.356200
vn -0.372600 0.790800 0.485600
vn -0.631400 0.605500 0.484500
vn -0.854600 0.379900 0.354000
vn -0.983100 0.129400 0.129400
vn -0.484500 -0.605500 -0.631400
vn -0.631400 -0.605500 0.484500
vn -0.733900 -0.379900 -0.563100
vn -0.854600 -0.379900 0.354000
vn -0.916100 -0.129400 -0.379500
vn -0.983100 -0.129400 0.129400
vn -0.983100 0.129400 -0.129400
vn -0.854600 0.379900 -0.354000
vn -0.631400 0.605500 -0.484500
vn -0.372600 0.790800 -0.485600
vn -0.147500 0.922700 -0.356200
vn -0.017200 0.991300 -0.130500
vn -0.050400 0.991300 0.121600
vn -0.234700 0.922700 0.305800
vn -0.485600 0.790800 0.372600
vn -0.735300 0.605500 0.304600
vn -0.917100 0.379900 0.120700
vn -0.631400 -0.605500 -0.484500
vn -0.735300 -0.605500 0.304600
vn -0.854600 -0.379900 -0.354000
vn -0.917100 -0.379900 0.120700
vn -0.983100 -0.129400 -0.129400
vn -0.917100 0.379900 -0.120700
vn -0.735300 0.605500 -0.304600
vn -0.485600 0.790800 -0.372600
vn -0.234700 0.922700 -0.305800
vn -0.050400 0.991300 -0.121600
vn -0.080100 0.991300 0.104400
vn -0.305800 0.922700 0.234700
vn -0.565500 0.790800 0.234200
vn -0.789100 0.605500 0.103900
vn -0.735300 -0.605500 -0.304600
vn -0.789100 -0.605500 0.103900
vn -0.917100 -0.379900 -0.120700
vn -0.789100 0.605500 -0.103900
vn -0.565500 0.790800 -0.234200
vn -0.305800 0.922700 -0.234700
vn -0.080100 0.991300 -0.104400
vn -0.104400 0.991300 0.080100
vn -0.356200 0.922700 0.147500
vn -0.606800 0.790800 0.079900
vn -0.789100 -0.605500 -0.103900
vn -0.606800 0.790800 -0.079900
vn -0.356200 0.922700 -0.147500
vn -0.104400 0.991300 -0.080100
vn -0.121600 0.991300 0.050400
vn -0.382200 0.922700 0.050300
vn -0.382200 0.922700 -0.050300
vn -0.121600 0.991300 -0.050400
vn -0.130500 0.991300 0.017200
vn -0.130500 0.991300 -0.017200
s off
f 2//1 3//1 4//1
f 1//2 4//2 6//2
f 7//3 8//3 2//3
f 9//4 10//4 3//4
f 4//5 3//5 11//5
f 5//6 6//6 14//6
f 7//7 1//7 5//7
f 4//8 12//8 16//8
f 18//9 8//9 7//9
f 8//10 19//10 9//10
f 9//11 20//11 21//11
f 10//12 22//12 11//12
f 12//13 11//13 23//13
f 13//14 14//14 26//14
f 15//15 5//15 13//15
f 6//16 16//16 28//16
f 29//17 17//17 7//17
f 12//18 24//18 30//18
f 32//19 18//19 17//19
f 33//20 19//20 8//20
f 34//21 20//21 9//21
f 35//22 36//22 21//22
f 21//23 37//23 22//23
f 22//24 38//24 23//24
f 24//25 23//25 39//25
f 27//26 13//26 25//26
f 14//27 28//27 42//27
f 29//28 15//28 27//28
f 28//29 16//29 30//29
f 31//30 17//30 29//30
f 24//31 40//31 46//31
f 48//32 32//32 31//32
f 49//33 33//33 18//33
f 50//34 34//34 19//34
f 34//35 51//35 35//35
f 35//36 52//36 53//36
f 36//37 54//37 37//37
f 37//38 55//38 38//38
f 38//39 56//39 39//39
f 40//40 39//40 57//40
f 59//41 43//41 27//41
f 42//42 28//42 44//42
f 61//43 45//43 29//43
f 44//44 30//44 46//44
f 47//45 31//45 45//45
f 40//46 58//46 64//46
f 66//47 48//47 47//47
f 67//48 49//48 32//48
f 68//49 50//49 33//49
f 69//50 51//50 34//50
f 51//51 70//51 52//51
f 52//52 71//52 53//52
f 53//53 72//53 54//53
f 54//54 73//54 55//54
f 55//55 74//55 56//55
f 56//56 75//56 57//56
f 58//57 57//57 76//57
f 78//58 61//58 43//58
f 44//59 62//59 79//59
f 80//60 63//60 45//60
f 62//61 46//61 64//61
f 65//62 47//62 63//62
f 58//63 77//63 83//63
f 85//64 66//64 65//64
f 86//65 67//65 48//65
f 87//66 68//66 49//66
f 88//67 69//67 50//67
f 89//68 70//68 51//68
f 70//69 71//69 52//69
f 53//70 71//70 72//70
f 72//71 90//71 73//71
f 73//72 91//72 74//72
f 74//73 92//73 75//73
f 75//74 93//74 76//74
f 77//75 76//75 94//75
f 96//76 80//76 61//76
f 62//77 81//77 97//77
f 98//78 82//78 63//78
f 81//79 64//79 83//79
f 100//80 84//80 65//80
f 77//81 95//81 101//81
f 103//82 85//82 84//82
f 104//83 86//83 66//83
f 105//84 87//84 67//84
f 106//85 88//85 68//85
f 107//86 89//86 69//86
f 89//87 71//87 70//87
f 72//88 71//88 90//88
f 90//89 108//89 91//89
f 91//90 109//90 92//90
f 92//91 110//91 93//91
f 93//92 111//92 94//92
f 95//93 94//93 112//93
f 98//94 80//94 96//94
f 81//95 99//95 115//95
f 116//96 100//96 82//96
f 99//97 83//97 101//97
f 102//98 84//98 100//98
f 95//99 113//99 119//99
f 121//100 103//100 102//100
f 122//101 104//101 85//101
f 123//102 105//102 86//102
f 124//103 106//103 87//103
f 106//104 125//104 107//104
f 107//105 71//105 89//105
f 90//106 71//106 108//106
f 91//107 108//107 126//107
f 92//108 109//108 127//108
f 110//109 128//109 111//109
f 111//110 129//110 112//110
f 113//111 112//111 130//111
f 116//112 98//112 114//112
f 99//113 117//113 133//113
f 134//114 118//114 100//114
f 101//115 119//115 135//115
f 120//116 102//116 118//116
f 113//117 131//117 137//117
f 139//118 121//118 120//118
f 140//119 122//119 103//119
f 141//120 123//120 104//120
f 142//121 124//121 105//121
f 143//122 125//122 106//122
f 125//123 71//123 107//123
f 108//124 71//124 126//124
f 109//125 126//125 144//125
f 110//126 127//126 145//126
f 128//127 146//127 129//127
f 129//128 147//128 130//128
f 130//129 148//129 149//129
f 134//130 116//130 132//130
f 117//131 135//131 151//131
f 152//132 136//132 118//132
f 135//133 119//133 137//133
f 138//134 120//134 136//134
f 131//135 149//135 155//135
f 157//136 139//136 138//136
f 158//137 140//137 121//137
f 159//138 141//138 122//138
f 160//139 142//139 123//139
f 161//140 143//140 124//140
f 143//141 71//141 125//141
f 126//142 71//142 144//142
f 127//143 144//143 162//143
f 128//144 145//144 163//144
f 146//145 164//145 147//145
f 147//146 165//146 148//146
f 148//147 166//147 167//147
f 152//148 134//148 150//148
f 135//149 153//149 169//149
f 170//150 154//150 136//150
f 137//151 155//151 171//151
f 156//152 138//152 154//152
f 149//153 167//153 173//153
f 174//154 175//154 157//154
f 176//155 158//155 139//155
f 177//156 159//156 140//156
f 178//157 160//157 141//157
f 179//158 161//158 142//158
f 161//159 71//159 143//159
f 144//160 71//160 162//160
f 145//161 162//161 180//161
f 163//162 181//162 164//162
f 164//163 182//163 165//163
f 148//164 165//164 183//164
f 166//165 184//165 185//165
f 186//166 170//166 152//166
f 153//167 171//167 187//167
f 188//168 172//168 154//168
f 155//169 173//169 189//169
f 174//170 156//170 172//170
f 167//171 185//171 191//171
f 185//172 184//172 175//172
f 192//173 176//173 157//173
f 193//174 177//174 158//174
f 177//175 194//175 178//175
f 195//176 179//176 160//176
f 179//177 71//177 161//177
f 162//178 71//178 180//178
f 163//179 180//179 196//179
f 181//180 197//180 182//180
f 182//181 198//181 183//181
f 183//182 199//182 184//182
f 188//183 170//183 186//183
f 171//184 189//184 201//184
f 190//185 172//185 188//185
f 189//186 173//186 191//186
f 185//187 174//187 190//187
f 199//188 192//188 175//188
f 204//189 193//189 176//189
f 205//190 194//190 177//190
f 206//191 195//191 178//191
f 195//192 71//192 179//192
f 180//193 71//193 196//193
f 181//194 196//194 207//194
f 182//195 197//195 208//195
f 198//196 209//196 199//196
f 210//197 202//197 188//197
f 201//198 189//198 203//198
f 191//199 190//199 202//199
f 209//200 204//200 192//200
f 204//201 212//201 205//201
f 213//202 206//202 194//202
f 206//203 71//203 195//203
f 196//204 71//204 207//204
f 207//205 214//205 208//205
f 208//206 215//206 209//206
f 203//207 202//207 210//207
f 215//208 212//208 204//208
f 216//209 213//209 205//209
f 213//210 71//210 206//210
f 207//211 71//211 214//211
f 208//212 214//212 217//212
f 217//213 216//213 212//213
f 216//214 71//214 213//214
f 214//215 71//215 217//215
f 217//216 71//216 216//216
f 1//1 2//1 4//1
f 5//2 1//2 6//2
f 1//3 7//3 2//3
f 2//4 9//4 3//4
f 12//5 4//5 11//5
f 13//6 5//6 14//6
f 15//7 7//7 5//7
f 6//8 4//8 16//8
f 17//9 18//9 7//9
f 2//10 8//10 9//10
f 10//11 9//11 21//11
f 3//12 10//12 11//12
f 24//13 12//13 23//13
f 25//14 13//14 26//14
f 27//15 15//15 13//15
f 14//16 6//16 28//16
f 15//17 29//17 7//17
f 16//18 12//18 30//18
f 31//19 32//19 17//19
f 18//20 33//20 8//20
f 19//21 34//21 9//21
f 20//22 35//22 21//22
f 10//23 21//23 22//23
f 11//24 22//24 23//24
f 40//25 24//25 39//25
f 41//26 27//26 25//26
f 26//27 14//27 42//27
f 43//28 29//28 27//28
f 44//29 28//29 30//29
f 45//30 31//30 29//30
f 30//31 24//31 46//31
f 47//32 48//32 31//32
f 32//33 49//33 18//33
f 33//34 50//34 19//34
f 20//35 34//35 35//35
f 36//36 35//36 53//36
f 21//37 36//37 37//37
f 22//38 37//38 38//38
f 23//39 38//39 39//39
f 58//40 40//40 57//40
f 41//41 59//41 27//41
f 60//42 42//42 44//42
f 43//43 61//43 29//43
f 62//44 44//44 46//44
f 63//45 47//45 45//45
f 46//46 40//46 64//46
f 65//47 66//47 47//47
f 48//48 67//48 32//48
f 49//49 68//49 33//49
f 50//50 69//50 34//50
f 35//51 51//51 52//51
f 36//53 53//53 54//53
f 37//54 54//54 55//54
f 38//55 55//55 56//55
f 39//56 56//56 57//56
f 77//57 58//57 76//57
f 59//58 78//58 43//58
f 60//59 44//59 79//59
f 61//60 80//60 45//60
f 81//61 62//61 64//61
f 82//62 65//62 63//62
f 64//63 58//63 83//63
f 84//64 85//64 65//64
f 66//65 86//65 48//65
f 67//66 87//66 49//66
f 68//67 88//67 50//67
f 69//68 89//68 51//68
f 54//71 72//71 73//71
f 55//72 73//72 74//72
f 56//73 74//73 75//73
f 57//74 75//74 76//74
f 95//75 77//75 94//75
f 78//76 96//76 61//76
f 79//77 62//77 97//77
f 80//78 98//78 63//78
f 99//79 81//79 83//79
f 82//80 100//80 65//80
f 83//81 77//81 101//81
f 102//82 103//82 84//82
f 85//83 104//83 66//83
f 86//84 105//84 67//84
f 87//85 106//85 68//85
f 88//86 107//86 69//86
f 73//89 90//89 91//89
f 74//90 91//90 92//90
f 75//91 92//91 93//91
f 76//92 93//92 94//92
f 113//93 95//93 112//93
f 114//94 98//94 96//94
f 97//95 81//95 115//95
f 98//96 116//96 82//96
f 117//97 99//97 101//97
f 118//98 102//98 100//98
f 101//99 95//99 119//99
f 120//100 121//100 102//100
f 103//101 122//101 85//101
f 104//102 123//102 86//102
f 105//103 124//103 87//103
f 88//104 106//104 107//104
f 109//107 91//107 126//107
f 110//108 92//108 127//108
f 93//109 110//109 111//109
f 94//110 111//110 112//110
f 131//111 113//111 130//111
f 132//112 116//112 114//112
f 115//113 99//113 133//113
f 116//114 134//114 100//114
f 117//115 101//115 135//115
f 136//116 120//116 118//116
f 119//117 113//117 137//117
f 138//118 139//118 120//118
f 121//119 140//119 103//119
f 122//120 141//120 104//120
f 123//121 142//121 105//121
f 124//122 143//122 106//122
f 127//125 109//125 144//125
f 128//126 110//126 145//126
f 111//127 128//127 129//127
f 112//128 129//128 130//128
f 131//129 130//129 149//129
f 150//130 134//130 132//130
f 133//131 117//131 151//131
f 134//132 152//132 118//132
f 153//133 135//133 137//133
f 154//134 138//134 136//134
f 137//135 131//135 155//135
f 156//136 157//136 138//136
f 139//137 158//137 121//137
f 140//138 159//138 122//138
f 141//139 160//139 123//139
f 142//140 161//140 124//140
f 145//143 127//143 162//143
f 146//144 128//144 163//144
f 129//145 146//145 147//145
f 130//146 147//146 148//146
f 149//147 148//147 167//147
f 168//148 152//148 150//148
f 151//149 135//149 169//149
f 152//150 170//150 136//150
f 153//151 137//151 171//151
f 172//152 156//152 154//152
f 155//153 149//153 173//153
f 156//154 174//154 157//154
f 157//155 176//155 139//155
f 158//156 177//156 140//156
f 159//157 178//157 141//157
f 160//158 179//158 142//158
f 163//161 145//161 180//161
f 146//162 163//162 164//162
f 147//163 164//163 165//163
f 166//164 148//164 183//164
f 167//165 166//165 185//165
f 168//166 186//166 152//166
f 169//167 153//167 187//167
f 170//168 188//168 154//168
f 171//169 155//169 189//169
f 190//170 174//170 172//170
f 173//171 167//171 191//171
f 174//172 185//172 175//172
f 175//173 192//173 157//173
f 176//174 193//174 158//174
f 159//175 177//175 178//175
f 178//176 195//176 160//176
f 181//179 163//179 196//179
f 164//180 181//180 182//180
f 165//181 182//181 183//181
f 166//182 183//182 184//182
f 200//183 188//183 186//183
f 187//184 171//184 201//184
f 202//185 190//185 188//185
f 203//186 189//186 191//186
f 191//187 185//187 190//187
f 184//188 199//188 175//188
f 192//189 204//189 176//189
f 193//190 205//190 177//190
f 194//191 206//191 178//191
f 197//194 181//194 207//194
f 198//195 182//195 208//195
f 183//196 198//196 199//196
f 200//197 210//197 188//197
f 211//198 201//198 203//198
f 203//199 191//199 202//199
f 199//200 209//200 192//200
f 193//201 204//201 205//201
f 205//202 213//202 194//202
f 197//205 207//205 208//205
f 198//206 208//206 209//206
f 211//207 203//207 210//207
f 209//208 215//208 204//208
f 212//209 216//209 205//209
f 215//212 208//212 217//212
f 215//213 217//213 212//213
